<?xml version="1.0" standalone="no"?><!DOCTYPE svg PUBLIC "-//W3C//DTD SVG 1.1//EN" "http://www.w3.org/Graphics/SVG/1.1/DTD/svg11.dtd"><svg t="1548832071268" class="icon" style="" viewBox="0 0 1024 1024" version="1.1" xmlns="http://www.w3.org/2000/svg" p-id="15574" xmlns:xlink="http://www.w3.org/1999/xlink" width="200" height="200"><defs><style type="text/css"></style></defs><path d="M355 258.8H182c-9.3 24.7-19 48.3-29 71h185v113h-90v102h112v113H248v135c26-18 53.7-38.7 83-62 1.3 46.7 7 95 17 145-64 39.3-113.7 74-149 104-9.3 8-20.7 19.7-34 35l-66-99c17.3-17.3 26-46.3 26-87v-171H16v-113h109v-102H96c-13.3 23.3-27.3 45-42 65-10.7-52.7-24.3-106.3-41-161 49.3-88.7 86.7-197.3 112-326l120 20c-8.7 36.7-17.7 72-27 106h137v112z m359 662l40-81H593l49 80c-91.3 36.7-177 70-257 100l-53-110c72.7-18 149.7-41.3 231-70H354v-101h54v-515h202v-49H377v-101h233v-51h130v51h254v101H740v49h216v515h57v101H780c80 20.7 155.7 43.7 227 69l-49 108c-66-30.7-147.3-62.7-244-96z m113-607H537v46h290v-46z m-290 172h290v-46H537v46z m0 126h290v-46H537v46z m0 127h290v-47H537v47z" p-id="15575"></path></svg>