<?xml version="1.0" standalone="no"?><!DOCTYPE svg PUBLIC "-//W3C//DTD SVG 1.1//EN" "http://www.w3.org/Graphics/SVG/1.1/DTD/svg11.dtd"><svg t="1548837331451" class="icon" style="" viewBox="0 0 1024 1024" version="1.1" xmlns="http://www.w3.org/2000/svg" p-id="16345" xmlns:xlink="http://www.w3.org/1999/xlink" width="200" height="200"><defs><style type="text/css"></style></defs><path d="M520.647111 175.752533C195.401956 165.671822 3.800178 523.6736 3.800178 523.6736s179.484444 337.840356 510.782578 332.8c331.298133-5.040356 507.778844-327.759644 507.778844-332.8C1022.3616 518.644622 845.869511 185.844622 520.647111 175.752533zM513.069511 798.481067C233.221689 793.429333 76.913778 526.188089 76.913778 526.188089s115.973689-267.252622 418.520178-272.292978C797.980444 248.866133 949.248 526.188089 949.248 526.188089S792.951467 803.521422 513.069511 798.481067z" p-id="16346"></path><path d="M513.092267 296.083911c-127.0784 0-230.115556 103.025778-230.115556 230.081422 0 127.112533 103.025778 230.138311 230.115556 230.138311 127.067022 0 230.0928-103.025778 230.0928-230.138311C743.185067 399.109689 640.159289 296.083911 513.092267 296.083911zM513.092267 723.126044c-108.782933 0-196.949333-88.200533-196.949333-196.960711s88.1664-196.937956 196.949333-196.937956c108.7488 0 196.926578 88.177778 196.926578 196.937956S621.841067 723.126044 513.092267 723.126044z" p-id="16347"></path><path d="M529.476267 364.930844c0 0 41.597156 0.944356 7.554844 29.320533 0 0-37.808356-3.7888-68.073244 32.142222-30.253511 35.931022-30.253511 27.420444-41.597156 65.240178 0 0 2.844444 19.842844-10.387911 23.643022-13.243733 3.777422-20.809956-6.633244-21.754311-19.8656s13.243733-67.117511 32.142222-86.038756c18.921244-18.909867 49.174756-42.552889 66.184533-44.4416C510.555022 363.042133 529.476267 364.930844 529.476267 364.930844z" p-id="16348"></path></svg>